<svg xmlns="http://www.w3.org/2000/svg" viewBox="0 0 48 48" width="48" height="48">
  <defs>
    <linearGradient id="megawe-gradient" x1="0%" y1="0%" x2="100%" y2="100%">
      <stop offset="0%" style="stop-color:#06b6d4;stop-opacity:1" />
      <stop offset="100%" style="stop-color:#0891b2;stop-opacity:1" />
    </linearGradient>
  </defs>
  <rect width="48" height="48" rx="12" fill="url(#megawe-gradient)"/>
  <path d="M24 8c-2.2 0-4 1.8-4 4v8c0 2.2 1.8 4 4 4s4-1.8 4-4v-8c0-2.2-1.8-4-4-4zm-8 12c0 3.3 2.7 6 6 6v4c0 1.1-.9 2-2 2s-2-.9-2-2h-4c0 3.3 2.7 6 6 6s6-2.7 6-6v-4c3.3 0 6-2.7 6-6h-4c0 1.1-.9 2-2 2s-2-.9-2-2h-4zm8-8c1.1 0 2 .9 2 2v8c0 1.1-.9 2-2 2s-2-.9-2-2v-8c0-1.1.9-2 2-2z" fill="white"/>
</svg>